<svg id="Layer_1" data-name="Layer 1" xmlns="http://www.w3.org/2000/svg" viewBox="0 0 86.32 78.66"><defs><style>.cls-1{fill:#f7c745;}.cls-2{fill:#15383f;}</style></defs><title>41_Customer_Segments</title><path class="cls-1" d="M20.63,46.66a16,16,0,1,0,16,16A16,16,0,0,0,20.63,46.66Zm1.93,20.16H12.44v-3.2a5.06,5.06,0,0,1,3.67-4.84,3.3,3.3,0,1,1,2.78,0,5.06,5.06,0,0,1,3.67,4.84Z"/><path class="cls-1" d="M61.63,20.5a16,16,0,1,0-16,16A16,16,0,0,0,61.63,20.5ZM47.57,24.66H37.45v-3.2a5.06,5.06,0,0,1,3.67-4.84,3.3,3.3,0,1,1,2.78,0,5.06,5.06,0,0,1,3.67,4.84Z"/><path class="cls-1" d="M70.32,46.66a16,16,0,1,0,16,16A16,16,0,0,0,70.32,46.66Zm1.93,20.16H62.14v-3.2a5.06,5.06,0,0,1,3.67-4.84,3.3,3.3,0,1,1,2.78,0,5.06,5.06,0,0,1,3.67,4.84Z"/><path class="cls-2" d="M67.2,42.16a17.38,17.38,0,0,0-6,1.09L53.05,31.43a17.5,17.5,0,1,0-21.1,0L23.78,43.35A17.49,17.49,0,1,0,34.92,61.16H49.77a17.49,17.49,0,1,0,17.42-19ZM28,17.5A14.5,14.5,0,1,1,42.51,32,14.52,14.52,0,0,1,28,17.5ZM34.49,33a17.36,17.36,0,0,0,16,0l7.9,11.51a17.5,17.5,0,0,0-8.65,13.61H34.92A17.5,17.5,0,0,0,26.5,44.68Zm-17,41.12A14.5,14.5,0,1,1,32,59.66,14.52,14.52,0,0,1,17.5,74.16Zm49.7,0a14.5,14.5,0,1,1,14.5-14.5A14.52,14.52,0,0,1,67.2,74.16Z"/><path class="cls-2" d="M71.19,58.45a4.8,4.8,0,1,0-8,0,6.53,6.53,0,0,0-2.56,5.17v3.21a1.5,1.5,0,0,0,1.5,1.5H72.26a1.5,1.5,0,0,0,1.5-1.5V63.62A6.53,6.53,0,0,0,71.19,58.45ZM67.2,54a1.8,1.8,0,1,1-1.8,1.8A1.8,1.8,0,0,1,67.2,54Zm3.56,11.33H63.64V63.62a3.56,3.56,0,0,1,2.14-3.26,4.34,4.34,0,0,0,2.83,0,3.56,3.56,0,0,1,2.14,3.26Z"/><path class="cls-2" d="M37.45,26.17H47.57a1.5,1.5,0,0,0,1.5-1.5V21.46a6.53,6.53,0,0,0-2.56-5.17,4.8,4.8,0,1,0-8,0,6.53,6.53,0,0,0-2.56,5.17v3.21A1.5,1.5,0,0,0,37.45,26.17Zm8.62-3H38.95V21.46a3.56,3.56,0,0,1,2.14-3.26,4.34,4.34,0,0,0,2.83,0,3.56,3.56,0,0,1,2.14,3.26ZM42.51,11.83a1.8,1.8,0,1,1-1.8,1.8A1.8,1.8,0,0,1,42.51,11.83Z"/><path class="cls-2" d="M21.5,58.45a4.8,4.8,0,1,0-8,0,6.53,6.53,0,0,0-2.56,5.17v3.21a1.5,1.5,0,0,0,1.5,1.5H22.56a1.5,1.5,0,0,0,1.5-1.5V63.62A6.53,6.53,0,0,0,21.5,58.45ZM17.5,54a1.8,1.8,0,1,1-1.8,1.8A1.8,1.8,0,0,1,17.5,54Zm3.56,11.33H13.94V63.62a3.56,3.56,0,0,1,2.14-3.26,4.34,4.34,0,0,0,2.83,0,3.56,3.56,0,0,1,2.14,3.26Z"/></svg>