<svg xmlns="http://www.w3.org/2000/svg" viewBox="0 0 91.09 83.42"><defs><style>.cls-1{fill:#f7c745;}.cls-2,.cls-3{fill:#002f36;}.cls-3{fill-rule:evenodd;}</style></defs><title>Asset 1</title><g id="Layer_2" data-name="Layer 2"><g id="Layer_1-2" data-name="Layer 1"><g id="Layer_1-2-2" data-name="Layer 1-2"><path class="cls-1" d="M74.49,3.73A16.59,16.59,0,0,0,57.9,20.32v.79H7.3a2,2,0,0,0-2,2V63.87a2,2,0,0,0,2,2H82.56a2,2,0,0,0,2-2V33.48A16.57,16.57,0,0,0,74.49,3.73Z"/><path class="cls-2" d="M80.76,38.09a1.5,1.5,0,0,0-1.5,1.5V60.81H3V19.05H49.36a1.5,1.5,0,0,0,0-3H3v-.89a4,4,0,0,1,4-4H50.89a1.5,1.5,0,0,0,0-3H7a7,7,0,0,0-7,7V64.75a7,7,0,0,0,7,7H29.23v8.67h-4.8a1.5,1.5,0,1,0,0,3h33.4a1.5,1.5,0,0,0,0-3H53V71.76H75.29a7,7,0,0,0,7-7V39.59a1.5,1.5,0,0,0-1.5-1.5ZM50,80.43H32.23V71.76H50ZM75.29,68.76H7a4,4,0,0,1-4-4v-.94H79.26v.94A4,4,0,0,1,75.29,68.76Z"/><path class="cls-2" d="M71.47,0A18.09,18.09,0,1,0,89.55,18.1h0A18.11,18.11,0,0,0,71.47,0Zm0,33.18a15.09,15.09,0,1,1,15.08-15.1h0A15.11,15.11,0,0,1,71.47,33.18Z"/><path class="cls-3" d="M58.84,40.61a41.91,41.91,0,0,1-17.14,4.1A42.69,42.69,0,0,1,19,38.6c-.57-.35-1,.28-.5.73a31.92,31.92,0,0,0,22.69,9c6.23-.1,13.43-2.34,18.36-6.42C60.4,41.18,59.68,40.21,58.84,40.61Z"/><path class="cls-3" d="M63.72,37.46c-.55-.72-5.24-1.27-8.06.95-.44.34-.35.8.13.73,1.61-.24,5.18-.76,5.83.11s-.64,4.55-1.21,6.2c-.18.49.22.69.62.3C63.67,43.28,64.28,38.18,63.72,37.46Z"/></g><path class="cls-2" d="M71.56,27.6a1.33,1.33,0,0,1-.6-.13,2.19,2.19,0,0,1-.61-.53L65.5,21.46a3,3,0,0,1-.5-.71,1.94,1.94,0,0,1-.1-.75V18.54a.75.75,0,0,1,.16-.55.77.77,0,0,1,.55-.17h2.65a5.52,5.52,0,0,0,2.27-.36,1.84,1.84,0,0,0,1-1.21h-5.9a.59.59,0,0,1-.71-.71V14.05a.75.75,0,0,1,.16-.55.77.77,0,0,1,.55-.17h5.87a2,2,0,0,0-1-1.2,5,5,0,0,0-2.12-.37H65.61a.77.77,0,0,1-.55-.16.77.77,0,0,1-.16-.55V9.23a.75.75,0,0,1,.16-.55.77.77,0,0,1,.55-.17H78.72c.37,0,.55.15.55.45a2.46,2.46,0,0,1,0,.52l-.28,1.46a1,1,0,0,1-.3.64,1.09,1.09,0,0,1-.69.18h-3.3a3.61,3.61,0,0,1,1.21,1.57h1.92c.37,0,.56.15.56.44a2.53,2.53,0,0,1-.06.53l-.22,1.12a1,1,0,0,1-.3.65,1.09,1.09,0,0,1-.69.18h-1a5,5,0,0,1-1.73,3.13,6.53,6.53,0,0,1-3.72,1.36l5.23,5.2a4.53,4.53,0,0,1,.54.62.83.83,0,0,1,.15.43c0,.41-.3.61-.91.61Z"/></g></g></svg>