<svg id="Layer_1" data-name="Layer 1" xmlns="http://www.w3.org/2000/svg" viewBox="0 0 514 514"><defs><style>.cls-1{fill:#f7c745;}.cls-2{fill:#042f36;}.cls-3{fill:#fff;}</style></defs><title>Icons</title><path class="cls-1" d="M452.34,319.07h0a30.69,30.69,0,0,0-42-10.46l-75.89,44.28h0a32,32,0,0,0-28.1-16.62H230a68.49,68.49,0,0,0-93.74-.62H68.65V439.76h69.63v-1.48a67.79,67.79,0,0,0,56.46,14.24L321,428.16a84.14,84.14,0,0,0,27.2-10.41l93.74-56.42a30.72,30.72,0,0,0,10.49-42.18A.09.09,0,0,1,452.34,319.07Z"/><path class="cls-2" d="M166.14,445.48a75.11,75.11,0,0,1-44.28-14H53.59a8.34,8.34,0,0,1-8.31-8.31V319.07a8.32,8.32,0,0,1,8.31-8.32H118a76.74,76.74,0,0,1,100.08.7h73.08a40.42,40.42,0,0,1,30.5,13.95l69.38-40.57a39,39,0,0,1,40.08,66.91L337.36,408.2a91.2,91.2,0,0,1-29.87,11.44L181.2,444A77,77,0,0,1,166.14,445.48Zm-58.35-50.7a8.28,8.28,0,0,1,7.24,4.28,60.8,60.8,0,0,0,9.75,13,58.84,58.84,0,0,0,53.37,15.76l126.29-24.36a75,75,0,0,0,24.49-9.35l93.66-56.45a22.31,22.31,0,0,0-23-38.27l-69.92,40.9A35.44,35.44,0,0,1,331,346.8a38.76,38.76,0,0,1-34.49,42.59,35.41,35.41,0,0,1-4.24.21H225.31a8.32,8.32,0,0,1,0-16.63h66.83a22.09,22.09,0,0,0,16.63-7.36,22.33,22.33,0,0,0,5.55-17.2,23,23,0,0,0-23.13-20.08H214.9a8.52,8.52,0,0,1-5.55-2.27,60.22,60.22,0,0,0-82.06-.9,8.46,8.46,0,0,1-5.93,2.51H61.9v87.24h43.62a81,81,0,0,1-5-7.74,8.3,8.3,0,0,1,3.21-11.27A7.44,7.44,0,0,1,107.79,394.78Z"/><path class="cls-1" d="M262.68,74.3a92.84,92.84,0,1,0,92.63,93v-.2A92.82,92.82,0,0,0,262.68,74.3Z"/><path class="cls-2" d="M245.72,255.65A101.15,101.15,0,1,1,346.87,154.51,101.15,101.15,0,0,1,245.72,255.65Zm0-185.67a84.53,84.53,0,1,0,84.53,84.53A84.52,84.52,0,0,0,245.72,70Z"/><path class="cls-3" d="M261.57,220.55l-49.26-45.8V160.51h21.31a19.88,19.88,0,1,0,0-39.75H213.91V106h19.71a34.66,34.66,0,0,1,.91,69.3l37.12,34.52Z"/><rect class="cls-3" x="213.87" y="105.95" width="73.12" height="14.77"/><rect class="cls-3" x="213.87" y="133.23" width="73.12" height="14.77"/></svg>